<?xml version="1.0" standalone="no"?>
<!DOCTYPE svg PUBLIC "-//W3C//DTD SVG 20010904//EN"
 "http://www.w3.org/TR/2001/REC-SVG-20010904/DTD/svg10.dtd">
<svg version="1.0" xmlns="http://www.w3.org/2000/svg"
 width="1553.000000pt" height="1553.000000pt" viewBox="0 0 1553.000000 1553.000000"
 preserveAspectRatio="xMidYMid meet">
<metadata>
Created by potrace 1.11, written by Peter Selinger 2001-2013
</metadata>
<g transform="translate(0.000000,1553.000000) scale(0.100000,-0.100000)"
fill="#000000" stroke="none">
<path d="M7458 15525 c-2 -1 -68 -6 -148 -9 -79 -4 -160 -9 -180 -11 -19 -2
-64 -7 -100 -10 -36 -3 -78 -8 -95 -10 -16 -2 -70 -9 -120 -15 -101 -12 -146
-18 -190 -26 -16 -3 -48 -7 -70 -10 -36 -5 -180 -30 -230 -40 -11 -3 -36 -7
-55 -10 -19 -3 -51 -9 -70 -14 -19 -5 -47 -12 -62 -15 -16 -3 -40 -7 -55 -10
-16 -3 -82 -20 -148 -36 -66 -17 -147 -37 -180 -45 -79 -19 -300 -86 -446
-134 -675 -224 -1303 -535 -1924 -953 -106 -72 -379 -272 -450 -332 -27 -22
-104 -86 -170 -141 -66 -54 -122 -101 -125 -105 -3 -3 -50 -46 -105 -95 -155
-140 -356 -343 -552 -556 -153 -168 -379 -451 -537 -675 -58 -81 -113 -159
-123 -173 -163 -228 -476 -784 -607 -1080 -16 -36 -44 -96 -61 -135 -111 -241
-268 -678 -363 -1010 -26 -91 -108 -420 -116 -465 -3 -19 -9 -46 -11 -60 -11
-48 -35 -174 -40 -204 -3 -17 -7 -42 -10 -56 -3 -14 -7 -38 -10 -55 -2 -16 -7
-48 -11 -70 -4 -22 -8 -47 -9 -55 -1 -8 -5 -37 -9 -65 -12 -84 -17 -118 -22
-170 -3 -27 -7 -61 -9 -75 -3 -14 -7 -63 -11 -110 -3 -47 -7 -101 -10 -120
-26 -232 -25 -1012 1 -1220 2 -19 7 -66 10 -105 5 -61 21 -210 29 -270 2 -11
6 -45 10 -75 61 -457 170 -921 326 -1390 129 -388 259 -699 440 -1055 91 -178
105 -204 203 -375 378 -659 873 -1279 1447 -1810 62 -58 121 -112 130 -121 45
-42 335 -282 406 -334 43 -33 81 -62 84 -65 11 -13 252 -182 380 -267 270
-179 547 -337 860 -490 146 -71 175 -84 355 -163 180 -79 189 -83 345 -139 80
-29 154 -57 165 -62 104 -44 626 -190 875 -245 19 -4 40 -9 45 -10 28 -7 124
-26 150 -30 17 -3 41 -7 55 -11 14 -3 37 -7 53 -9 15 -2 39 -6 55 -9 15 -3 43
-8 62 -11 19 -3 73 -11 120 -19 84 -14 234 -33 307 -40 21 -2 67 -7 103 -10
36 -3 81 -8 100 -10 96 -12 340 -19 655 -19 408 1 551 8 873 49 20 2 62 7 92
10 30 3 66 8 80 10 14 2 84 14 155 25 72 12 148 25 170 30 22 4 62 11 89 15
27 3 52 8 56 10 4 2 19 6 35 9 16 3 52 10 82 16 29 6 54 11 55 10 2 -1 16 3
31 9 15 6 40 13 55 16 150 27 626 169 862 256 557 205 1140 499 1610 812 120
79 367 253 380 267 3 3 43 34 90 69 86 66 231 183 285 232 17 15 53 46 80 69
184 155 487 456 690 684 39 44 75 84 80 90 26 28 214 259 250 306 22 29 45 57
50 64 6 6 40 52 76 101 405 553 759 1203 994 1820 195 511 347 1081 420 1580
12 77 15 100 20 125 5 31 15 110 21 170 2 25 6 59 9 75 4 28 9 84 20 210 26
318 27 994 0 1235 -2 19 -6 69 -10 110 -3 41 -8 91 -10 110 -3 19 -7 53 -10
75 -4 33 -26 198 -40 295 -1 14 -8 54 -14 90 -132 780 -384 1536 -749 2250
-91 177 -228 422 -300 535 -140 219 -177 274 -280 418 -448 628 -966 1168
-1568 1637 -164 128 -182 141 -374 273 -216 148 -715 447 -746 447 -7 0 -14 4
-16 9 -2 7 -339 175 -448 224 -79 35 -115 50 -120 51 -3 1 -40 16 -83 34 -201
85 -519 197 -767 271 -127 37 -462 124 -523 135 -15 3 -35 7 -45 10 -9 3 -30
8 -47 11 -57 11 -240 45 -265 49 -45 9 -204 35 -240 40 -102 14 -202 26 -263
32 -37 3 -76 7 -86 9 -10 2 -61 6 -112 10 -52 4 -116 9 -144 11 -58 5 -782 14
-787 9z"/>
</g>
</svg>
